<?xml version="1.0" encoding="UTF-8" standalone="no"?>
<!-- Created with Inkscape (http://www.inkscape.org/) -->

<svg
   xmlns:dc="http://purl.org/dc/elements/1.1/"
   xmlns:cc="http://creativecommons.org/ns#"
   xmlns:rdf="http://www.w3.org/1999/02/22-rdf-syntax-ns#"
   xmlns:svg="http://www.w3.org/2000/svg"
   xmlns="http://www.w3.org/2000/svg"
   xmlns:sodipodi="http://sodipodi.sourceforge.net/DTD/sodipodi-0.dtd"
   xmlns:inkscape="http://www.inkscape.org/namespaces/inkscape"
   id="svg2"
   version="1.1"
   inkscape:version="0.48.4 r9939"
   width="732.5"
   height="1028.75"
   xml:space="preserve"
   sodipodi:docname="phone_holder_nobite.svg"><metadata
     id="metadata8"><rdf:RDF><cc:Work
         rdf:about=""><dc:format>image/svg+xml</dc:format><dc:type
           rdf:resource="http://purl.org/dc/dcmitype/StillImage" /><dc:title /></cc:Work></rdf:RDF></metadata><defs
     id="defs6"><clipPath
       clipPathUnits="userSpaceOnUse"
       id="clipPath18"><path
         d="m 0,9.37109 5860,0 0,8220.00001 -5860,0 L 0,9.37109 z"
         id="path20" /></clipPath></defs><sodipodi:namedview
     pagecolor="#ffffff"
     bordercolor="#666666"
     borderopacity="1"
     objecttolerance="10000"
     gridtolerance="10000"
     guidetolerance="10000"
     inkscape:pageopacity="0"
     inkscape:pageshadow="2"
     inkscape:window-width="1920"
     inkscape:window-height="1003"
     id="namedview4"
     showgrid="false"
     inkscape:zoom="2.8284271"
     inkscape:cx="127.86014"
     inkscape:cy="451.38165"
     inkscape:window-x="-9"
     inkscape:window-y="-9"
     inkscape:window-maximized="1"
     inkscape:current-layer="g10"
     showguides="true"
     inkscape:guide-bbox="true" /><g
     id="g10"
     inkscape:groupmode="layer"
     inkscape:label="ink_ext_XXXXXX"
     transform="matrix(1.25,0,0,-1.25,0,1028.75)"><path
       inkscape:connector-curvature="0"
       id="path22"
       style="fill:none;stroke:#000000;stroke-width:0.58180499;stroke-linecap:square;stroke-linejoin:miter;stroke-miterlimit:4;stroke-opacity:1;stroke-dasharray:none"
       d="m 235.543,607.789 14.176,0 0,-8.477 13.601,0 0,8.477 14.75,0 0,-8.477 13.598,0 0,8.477 14.176,0 0,200.699 -14.176,0 0,8.5 -13.598,0 0,-8.5 -14.75,0 0,8.5 -13.601,0 0,-8.5 -14.176,0 0,-200.699 z" /><path
       inkscape:connector-curvature="0"
       id="path24"
       style="fill:none;stroke:#000000;stroke-width:0.58180499;stroke-linecap:square;stroke-linejoin:miter;stroke-miterlimit:4;stroke-opacity:1;stroke-dasharray:none"
       d="m 490.664,607.789 14.176,0 0,-8.477 13.598,0 0,8.477 14.75,0 0,-8.477 13.601,0 0,8.477 14.176,0 0,200.699 -14.176,0 0,8.5 -13.601,0 0,-8.5 -14.75,0 0,8.5 -13.598,0 0,-8.5 -14.176,0 0,-200.699 z" /><path
       inkscape:connector-curvature="0"
       id="path26"
       style="fill:none;stroke:#000000;stroke-width:0.56692898;stroke-linecap:square;stroke-linejoin:miter;stroke-miterlimit:4;stroke-opacity:1;stroke-dasharray:none"
       d="m 497.461,642.949 0,14.175 c 0,7.852 6.324,14.172 14.176,14.172 l 28.343,0 c 7.856,0 14.176,-6.32 14.176,-14.172 l 0,-14.175 c 0,-7.852 -6.32,-14.172 -14.176,-14.172 l -28.343,0 c -7.852,0 -14.176,6.32 -14.176,14.172 z" /><path
       inkscape:connector-curvature="0"
       id="path28"
       style="fill:none;stroke:#000000;stroke-width:0.56692898;stroke-linecap:square;stroke-linejoin:miter;stroke-miterlimit:4;stroke-opacity:1;stroke-dasharray:none"
       d="m 497.461,756.335 0,14.176 c 0,7.852 6.324,14.172 14.176,14.172 l 28.343,0 c 7.856,0 14.176,-6.32 14.176,-14.172 l 0,-14.176 c 0,-7.851 -6.32,-14.171 -14.176,-14.171 l -28.343,0 c -7.852,0 -14.176,6.32 -14.176,14.171 z" /><path
       inkscape:connector-curvature="0"
       id="path30"
       style="fill:none;stroke:#000000;stroke-width:0.56692898;stroke-linecap:square;stroke-linejoin:miter;stroke-miterlimit:4;stroke-opacity:1;stroke-dasharray:none"
       d="m 497.461,699.644 0,14.172 c 0,7.851 6.324,14.176 14.176,14.176 l 28.343,0 c 7.856,0 14.176,-6.325 14.176,-14.176 l 0,-14.172 c 0,-7.852 -6.32,-14.172 -14.176,-14.172 l -28.343,0 c -7.852,0 -14.176,6.32 -14.176,14.172 z" /><path
       inkscape:connector-curvature="0"
       id="path32"
       style="fill:none;stroke:#000000;stroke-width:0.58180499;stroke-linecap:square;stroke-linejoin:miter;stroke-miterlimit:4;stroke-opacity:1;stroke-dasharray:none"
       d="m 405.625,607.789 14.172,0 0,-8.477 13.601,0 0,8.477 14.75,0 0,-8.477 13.602,0 0,8.477 14.172,0 0,200.699 -14.172,0 0,8.5 -13.602,0 0,-8.5 -14.75,0 0,8.5 -13.601,0 0,-8.5 -14.172,0 0,-200.699 z" /><path
       inkscape:connector-curvature="0"
       id="path34"
       style="fill:none;stroke:#000000;stroke-width:0.56692898;stroke-linecap:square;stroke-linejoin:miter;stroke-miterlimit:4;stroke-opacity:1;stroke-dasharray:none"
       d="m 412.422,642.949 0,14.175 c 0,7.852 6.324,14.172 14.176,14.172 l 28.343,0 c 7.852,0 14.176,-6.32 14.176,-14.172 l 0,-14.175 c 0,-7.852 -6.324,-14.172 -14.176,-14.172 l -28.343,0 c -7.852,0 -14.176,6.32 -14.176,14.172 z" /><path
       inkscape:connector-curvature="0"
       id="path36"
       style="fill:none;stroke:#000000;stroke-width:0.56692898;stroke-linecap:square;stroke-linejoin:miter;stroke-miterlimit:4;stroke-opacity:1;stroke-dasharray:none"
       d="m 412.422,756.335 0,14.176 c 0,7.852 6.324,14.172 14.176,14.172 l 28.343,0 c 7.852,0 14.176,-6.32 14.176,-14.172 l 0,-14.176 c 0,-7.851 -6.324,-14.171 -14.176,-14.171 l -28.343,0 c -7.852,0 -14.176,6.32 -14.176,14.171 z" /><path
       inkscape:connector-curvature="0"
       id="path38"
       style="fill:none;stroke:#000000;stroke-width:0.56692898;stroke-linecap:square;stroke-linejoin:miter;stroke-miterlimit:4;stroke-opacity:1;stroke-dasharray:none"
       d="m 412.422,699.644 0,14.172 c 0,7.851 6.324,14.176 14.176,14.176 l 28.343,0 c 7.852,0 14.176,-6.325 14.176,-14.176 l 0,-14.172 c 0,-7.852 -6.324,-14.172 -14.176,-14.172 l -28.343,0 c -7.852,0 -14.176,6.32 -14.176,14.172 z" /><path
       inkscape:connector-curvature="0"
       id="path40"
       style="fill:none;stroke:#000000;stroke-width:0.58180499;stroke-linecap:square;stroke-linejoin:miter;stroke-miterlimit:4;stroke-opacity:1;stroke-dasharray:none"
       d="m 320.586,607.789 14.172,0 0,-8.477 13.601,0 0,8.477 14.75,0 0,-8.477 13.602,0 0,8.477 14.172,0 0,200.699 -14.172,0 0,8.5 -13.602,0 0,-8.5 -14.75,0 0,8.5 -13.601,0 0,-8.5 -14.172,0 0,-200.699 z" /><path
       inkscape:connector-curvature="0"
       id="path42"
       style="fill:none;stroke:#000000;stroke-width:0.56692898;stroke-linecap:square;stroke-linejoin:miter;stroke-miterlimit:4;stroke-opacity:1;stroke-dasharray:none"
       d="m 327.383,642.949 0,14.175 c 0,7.852 6.32,14.172 14.176,14.172 l 28.343,0 c 7.852,0 14.176,-6.32 14.176,-14.172 l 0,-14.175 c 0,-7.852 -6.324,-14.172 -14.176,-14.172 l -28.343,0 c -7.856,0 -14.176,6.32 -14.176,14.172 z" /><path
       inkscape:connector-curvature="0"
       id="path44"
       style="fill:none;stroke:#000000;stroke-width:0.56692898;stroke-linecap:square;stroke-linejoin:miter;stroke-miterlimit:4;stroke-opacity:1;stroke-dasharray:none"
       d="m 327.383,756.335 0,14.176 c 0,7.852 6.32,14.172 14.176,14.172 l 28.343,0 c 7.852,0 14.176,-6.32 14.176,-14.172 l 0,-14.176 c 0,-7.851 -6.324,-14.171 -14.176,-14.171 l -28.343,0 c -7.856,0 -14.176,6.32 -14.176,14.171 z" /><path
       inkscape:connector-curvature="0"
       id="path46"
       style="fill:none;stroke:#000000;stroke-width:0.56692898;stroke-linecap:square;stroke-linejoin:miter;stroke-miterlimit:4;stroke-opacity:1;stroke-dasharray:none"
       d="m 327.383,699.644 0,14.172 c 0,7.851 6.32,14.176 14.176,14.176 l 28.343,0 c 7.852,0 14.176,-6.325 14.176,-14.176 l 0,-14.172 c 0,-7.852 -6.324,-14.172 -14.176,-14.172 l -28.343,0 c -7.856,0 -14.176,6.32 -14.176,14.172 z" /><path
       inkscape:connector-curvature="0"
       id="path48"
       style="fill:none;stroke:#000000;stroke-width:0.58180499;stroke-linecap:square;stroke-linejoin:miter;stroke-miterlimit:4;stroke-opacity:1;stroke-dasharray:none"
       d="m 436.246,8.26875 0,14.17225 8.477,0 0,13.6008 -8.477,0 0,14.75 8.477,0 0,13.602 -8.477,0 0,14.1722 -200.699,0 0,-14.1722 -8.5,0 0,-13.602 8.5,0 0,-14.75 -8.5,0 0,-13.6008 8.5,0 0,-14.17225 200.699,0 z" /><path
       inkscape:connector-curvature="0"
       id="path50"
       style="fill:none;stroke:#000000;stroke-width:0.58180499;stroke-linecap:square;stroke-linejoin:miter;stroke-miterlimit:4;stroke-opacity:1;stroke-dasharray:none"
       d="m 127.836,227.953 8.5,0 0,-14.172 63.922,0 c 0.14,23.097 16.406,41.773 36.426,41.773 20.019,0 36.261,-18.676 36.402,-41.773 l 63.949,0 0,14.172 8.473,0 0,13.601 -8.473,0 0,14.75 8.473,0 0,13.602 -8.473,0 0,14.172 -200.699,0 0,-14.172 -8.5,0 0,-13.602 8.5,0 0,-14.75 -8.5,0 0,-13.601 z" /><path
       inkscape:connector-curvature="0"
       id="path52"
       style="fill:none;stroke:#000000;stroke-width:0.58180499;stroke-linecap:square;stroke-linejoin:miter;stroke-miterlimit:4;stroke-opacity:1;stroke-dasharray:none"
       d="m 127.836,305.906 8.5,0 0,-14.172 63.922,0 c 0.14,23.098 16.406,41.773 36.426,41.773 20.019,0 36.261,-18.675 36.402,-41.773 l 63.949,0 0,14.172 8.473,0 0,13.601 -8.473,0 0,14.75 8.473,0 0,13.602 -8.473,0 0,14.172 -200.699,0 0,-14.172 -8.5,0 0,-13.602 8.5,0 0,-14.75 -8.5,0 0,-13.601 z" /><path
       style="fill:none;stroke:#ff0000;stroke-width:0.55584699;stroke-linecap:square;stroke-linejoin:miter;stroke-miterlimit:4;stroke-opacity:1;stroke-dasharray:none"
       d="m 8.77305,838.66394 0,-28.37494 -8.50092402,0 9.2102e-4,-13.579 8.500003,0 0,-28.949 -8.500003,-6e-5 0,-13.57511 8.500003,10e-4 0,-28.926 -8.500003,0 0,-13.59769 8.500003,6.9e-4 1.783e-4,-263.62586 200.7043417,5.7e-4 -5.7e-4,263.62529 8.5,0 0,13.597 -8.5,0 0,28.926 8.5,0 0,13.574 -8.5,0 0,28.949 8.5,0.001 -0.001,13.57795 -8.49875,-3e-4 0,28.375 z"
       id="path54"
       inkscape:connector-curvature="0"
       sodipodi:nodetypes="ccccccccccccccccccccccccccccc" /><path
       inkscape:connector-curvature="0"
       id="path56"
       style="fill:none;stroke:#000000;stroke-width:0.57399303;stroke-linecap:square;stroke-linejoin:miter;stroke-miterlimit:4;stroke-opacity:1;stroke-dasharray:none"
       d="m 108.547,812.664 1.726,0 c 47.418,0 85.59,-38.172 85.59,-85.59 l 0,-171.809 c 0,-47.414 -38.172,-85.586 -85.59,-85.586 l -1.726,0 c -47.4181,0 -85.59,38.172 -85.59,85.586 l 0,171.809 c 0,47.418 38.1719,85.59 85.59,85.59 z" /><path
       inkscape:connector-curvature="0"
       id="path58"
       style="fill:none;stroke:#000000;stroke-width:0.726008;stroke-linecap:square;stroke-linejoin:miter;stroke-miterlimit:4;stroke-opacity:1;stroke-dasharray:none"
       d="m 227.773,381.191 28.176,0 0,-8.672 13.801,0 0,8.672 28.723,0 0,-8.672 13.777,0 0,8.672 28.723,0 0,-8.672 13.8,0 0,8.672 99.602,0 0,-8.672 13.797,0 0,8.672 28.726,0 0,-8.672 13.774,0 0,8.672 28.726,0 0,-8.672 13.801,0 0,8.672 28.176,0 0,200.527 -28.176,0 0,8.699 -13.801,0 0,-8.699 -28.726,0 0,8.699 -13.774,0 0,-8.699 -28.726,0 0,8.699 -13.797,0 0,-8.699 -99.602,0 0,8.699 -13.8,0 0,-8.699 -28.723,0 0,8.699 -13.777,0 0,-8.699 -28.723,0 0,8.699 -13.801,0 0,-8.699 -28.176,0 0,-200.527 z" /><path
       inkscape:connector-curvature="0"
       id="path60"
       style="fill:none;stroke:#000000;stroke-width:0.80000001;stroke-linecap:butt;stroke-linejoin:miter;stroke-miterlimit:4;stroke-opacity:1;stroke-dasharray:none"
       d="m 82.043,426.613 c 10.6601,-13.235 18.121,-24.207 21.508,-34.934 7.652,-16.555 13.922,-50.105 6.836,-92.625 -6.145,-26.277 -7.086,-21.265 0.011,-42.519 l 56.676,-212.5983 28.352,8.6801 0,19.6602 7.086,0 c 7.09,0 14.176,-7.086 14.176,-21.2622 l 0,-49.60503 -212.59816,0 0,425.19923 77.95316,0.004 z" /><path
       inkscape:connector-curvature="0"
       id="path62"
       style="fill:none;stroke:#ff0000;stroke-width:0.23793299;stroke-linecap:square;stroke-linejoin:miter;stroke-miterlimit:4;stroke-opacity:1;stroke-dasharray:none"
       d="m 196.977,1.69492 8.26602,0 0,70.6289 -8.26602,0 0,-70.6289 z" /><path
       inkscape:connector-curvature="0"
       id="path64"
       style="fill:none;stroke:#000000;stroke-width:0.31752998;stroke-linecap:square;stroke-linejoin:miter;stroke-miterlimit:4;stroke-opacity:1;stroke-dasharray:none"
       d="m 197.02,44.2488 8.17109,0 0,13.848 -8.17109,0 0,-13.848 z" /><path
       inkscape:connector-curvature="0"
       id="path66"
       style="fill:none;stroke:#000000;stroke-width:0.31752998;stroke-linecap:square;stroke-linejoin:miter;stroke-miterlimit:4;stroke-opacity:1;stroke-dasharray:none"
       d="m 197.027,15.9059 8.17617,0 0,13.8512 -8.17617,0 0,-13.8512 z" /><path
       inkscape:connector-curvature="0"
       id="path68"
       style="fill:none;stroke:#ff0000;stroke-width:0.23793299;stroke-linecap:square;stroke-linejoin:miter;stroke-miterlimit:4;stroke-opacity:1;stroke-dasharray:none"
       d="m 196.636,43.6355 -2.14,7.9848 -68.223,-18.2812 2.141,-7.9848 68.222,18.2812 z" /><path
       inkscape:connector-curvature="0"
       id="path70"
       style="fill:none;stroke:#000000;stroke-width:0.31752998;stroke-linecap:square;stroke-linejoin:miter;stroke-miterlimit:4;stroke-opacity:1;stroke-dasharray:none"
       d="m 182.883,39.9996 -13.379,-3.5828 -2.114,7.8945 13.38,3.5864 2.113,-7.8981 z" /><path
       inkscape:connector-curvature="0"
       id="path72"
       style="fill:none;stroke:#000000;stroke-width:0.31752998;stroke-linecap:square;stroke-linejoin:miter;stroke-miterlimit:4;stroke-opacity:1;stroke-dasharray:none"
       d="m 155.511,32.6559 -13.378,-3.5825 -2.118,7.8946 13.379,3.5855 2.117,-7.8976 z" /><path
       inkscape:connector-curvature="0"
       id="path74"
       style="fill:none;stroke:#ff0000;stroke-width:0.23793299;stroke-linecap:square;stroke-linejoin:miter;stroke-miterlimit:4;stroke-opacity:1;stroke-dasharray:none"
       d="M 153.89,54.382 151.75,62.3668 83.527,44.0855 85.6676,36.1008 153.89,54.382 z" /><path
       inkscape:connector-curvature="0"
       id="path76"
       style="fill:none;stroke:#000000;stroke-width:0.31752998;stroke-linecap:square;stroke-linejoin:miter;stroke-miterlimit:4;stroke-opacity:1;stroke-dasharray:none"
       d="m 140.136,50.7449 -13.379,-3.5816 -2.113,7.8945 13.379,3.586 2.113,-7.8989 z" /><path
       inkscape:connector-curvature="0"
       id="path78"
       style="fill:none;stroke:#000000;stroke-width:0.31752998;stroke-linecap:square;stroke-linejoin:miter;stroke-miterlimit:4;stroke-opacity:1;stroke-dasharray:none"
       d="M 112.766,43.4012 99.3867,39.8195 97.2695,47.7141 110.648,51.3 112.766,43.4012 z" /><path
       inkscape:connector-curvature="0"
       id="path80"
       style="fill:none;stroke:#ff0000;stroke-width:0.23793299;stroke-linecap:square;stroke-linejoin:miter;stroke-miterlimit:4;stroke-opacity:1;stroke-dasharray:none"
       d="m 9.875,48.3 8.26992,0 0,70.6289 -8.26992,0 0,-70.6289 z" /><path
       inkscape:connector-curvature="0"
       id="path82"
       style="fill:none;stroke:#000000;stroke-width:0.31752998;stroke-linecap:square;stroke-linejoin:miter;stroke-miterlimit:4;stroke-opacity:1;stroke-dasharray:none"
       d="m 9.91797,90.8547 8.17617,0 0,13.8523 -8.17617,0 0,-13.8523 z" /><path
       inkscape:connector-curvature="0"
       id="path84"
       style="fill:none;stroke:#000000;stroke-width:0.31752998;stroke-linecap:square;stroke-linejoin:miter;stroke-miterlimit:4;stroke-opacity:1;stroke-dasharray:none"
       d="m 9.93008,62.5148 8.17188,0 0,13.848 -8.17188,0 0,-13.848 z" /><path
       inkscape:connector-curvature="0"
       id="path86"
       style="fill:none;stroke:#ff0000;stroke-width:0.23793299;stroke-linecap:square;stroke-linejoin:miter;stroke-miterlimit:4;stroke-opacity:1;stroke-dasharray:none"
       d="m 9.875,331.765 8.26992,0 0,70.6289 -8.26992,0 0,-70.6289 z" /><path
       inkscape:connector-curvature="0"
       id="path88"
       style="fill:none;stroke:#000000;stroke-width:0.31752998;stroke-linecap:square;stroke-linejoin:miter;stroke-miterlimit:4;stroke-opacity:1;stroke-dasharray:none"
       d="m 9.91797,374.32 8.17617,0 0,13.8508 -8.17617,0 0,-13.8508 z" /><path
       inkscape:connector-curvature="0"
       id="path90"
       style="fill:none;stroke:#000000;stroke-width:0.31752998;stroke-linecap:square;stroke-linejoin:miter;stroke-miterlimit:4;stroke-opacity:1;stroke-dasharray:none"
       d="m 9.93008,345.98 8.17188,0 0,13.848 -8.17188,0 0,-13.848 z" /><path
       inkscape:connector-curvature="0"
       id="path92"
       style="fill:none;stroke:#ff0000;stroke-width:0.23793299;stroke-linecap:square;stroke-linejoin:miter;stroke-miterlimit:4;stroke-opacity:1;stroke-dasharray:none"
       d="m 9.875,190.035 8.26992,0 0,70.625 -8.26992,0 0,-70.625 z" /><path
       inkscape:connector-curvature="0"
       id="path94"
       style="fill:none;stroke:#000000;stroke-width:0.31752998;stroke-linecap:square;stroke-linejoin:miter;stroke-miterlimit:4;stroke-opacity:1;stroke-dasharray:none"
       d="m 9.91797,232.589 8.17617,0 0,13.848 -8.17617,0 0,-13.848 z" /><path
       inkscape:connector-curvature="0"
       id="path96"
       style="fill:none;stroke:#000000;stroke-width:0.31752998;stroke-linecap:square;stroke-linejoin:miter;stroke-miterlimit:4;stroke-opacity:1;stroke-dasharray:none"
       d="m 9.93008,204.246 8.17188,0 0,13.8512 -8.17188,0 0,-13.8512 z" /><path
       inkscape:connector-curvature="0"
       id="path98"
       style="fill:none;stroke:#ff0000;stroke-width:0.54893696;stroke-linecap:square;stroke-linejoin:miter;stroke-miterlimit:4;stroke-opacity:1;stroke-dasharray:none"
       d="M 64.7262,422.179 57.043,420.117 158.148,42.7965 165.832,44.8551 64.7262,422.179 z" /><path
       inkscape:connector-curvature="0"
       id="path100"
       style="fill:none;stroke:#000000;stroke-width:0.31752998;stroke-linecap:square;stroke-linejoin:miter;stroke-miterlimit:4;stroke-opacity:1;stroke-dasharray:none"
       d="m 72.148,394.933 3.586,-13.379 -7.8981,-2.113 -3.5859,13.375 7.898,2.117 z" /><path
       inkscape:connector-curvature="0"
       id="path102"
       style="fill:none;stroke:#000000;stroke-width:0.31752998;stroke-linecap:square;stroke-linejoin:miter;stroke-miterlimit:4;stroke-opacity:1;stroke-dasharray:none"
       d="m 83.152,353.863 3.5859,-13.379 -7.8981,-2.117 -3.582,13.379 7.8942,2.117 z" /><path
       inkscape:connector-curvature="0"
       id="path104"
       style="fill:none;stroke:#000000;stroke-width:0.31752998;stroke-linecap:square;stroke-linejoin:miter;stroke-miterlimit:4;stroke-opacity:1;stroke-dasharray:none"
       d="m 94.1559,312.792 c 0.891,-4.847 2.3242,-8.668 3.5863,-13.378 l -7.8942,-2.118 c -0.891,4.848 -2.325,8.668 -3.5859,13.379 l 7.8938,2.117 z" /><path
       inkscape:connector-curvature="0"
       id="path106"
       style="fill:none;stroke:#ff0000;stroke-width:0.523265;stroke-linecap:square;stroke-linejoin:miter;stroke-miterlimit:4;stroke-opacity:1;stroke-dasharray:none"
       d="m 37.8902,400.101 -7.707,-2.066 91.5708,-341.7506 7.711,2.0629 -91.5748,341.7537 z" /><path
       inkscape:connector-curvature="0"
       id="path108"
       style="fill:none;stroke:#000000;stroke-width:0.31752998;stroke-linecap:square;stroke-linejoin:miter;stroke-miterlimit:4;stroke-opacity:1;stroke-dasharray:none"
       d="m 45.3008,372.839 3.5859,-13.378 -7.8988,-2.114 -3.5816,13.379 7.8945,2.113 z" /><path
       inkscape:connector-curvature="0"
       id="path110"
       style="fill:none;stroke:#000000;stroke-width:0.31752998;stroke-linecap:square;stroke-linejoin:miter;stroke-miterlimit:4;stroke-opacity:1;stroke-dasharray:none"
       d="m 56.309,331.769 3.5816,-13.379 -7.8945,-2.113 -3.5859,13.375 7.8988,2.117 z" /><path
       inkscape:connector-curvature="0"
       id="path112"
       style="fill:none;stroke:#000000;stroke-width:0.31752998;stroke-linecap:square;stroke-linejoin:miter;stroke-miterlimit:4;stroke-opacity:1;stroke-dasharray:none"
       d="m 67.3125,290.699 3.5816,-13.379 -7.8945,-2.113 -3.5859,13.374 7.8988,2.118 z" /><path
       inkscape:connector-curvature="0"
       id="path114"
       style="fill:none;stroke:#000000;stroke-width:0.31752998;stroke-linecap:square;stroke-linejoin:miter;stroke-miterlimit:4;stroke-opacity:1;stroke-dasharray:none"
       d="m 118.668,99.0344 3.586,-13.3785 -7.899,-2.1133 -3.582,13.3746 7.895,2.1172 z" /><path
       inkscape:connector-curvature="0"
       id="path116"
       style="fill:none;stroke:#000000;stroke-width:0.31752998;stroke-linecap:square;stroke-linejoin:miter;stroke-miterlimit:4;stroke-opacity:1;stroke-dasharray:none"
       d="m 107.664,140.105 3.582,-13.379 -7.895,-2.113 -3.5858,13.374 7.8988,2.118 z" /><path
       inkscape:connector-curvature="0"
       id="path118"
       style="fill:none;stroke:#000000;stroke-width:0.31752998;stroke-linecap:square;stroke-linejoin:miter;stroke-miterlimit:4;stroke-opacity:1;stroke-dasharray:none"
       d="m 96.6602,181.175 3.5818,-13.379 -7.8947,-2.113 -3.5856,13.379 7.8985,2.113 z" /><path
       inkscape:connector-curvature="0"
       id="path120"
       style="fill:none;stroke:#000000;stroke-width:0.80000001;stroke-linecap:butt;stroke-linejoin:miter;stroke-miterlimit:4;stroke-opacity:1;stroke-dasharray:none"
       d="m 160.004,174.343 c 13.234,10.664 24.207,18.125 34.934,21.512 16.554,7.652 50.105,13.922 92.625,6.836 26.277,-6.145 21.265,-7.086 42.515,0.012 l 212.602,56.671 -8.68,28.356 -19.66,0 0,7.086 c 0,7.09 7.086,14.176 21.258,14.176 l 49.609,0 0,-212.5982 -425.199,0 -0.004,77.9492 z" /><path
       inkscape:connector-curvature="0"
       id="path122"
       style="fill:none;stroke:#ff0000;stroke-width:0.23793299;stroke-linecap:square;stroke-linejoin:miter;stroke-miterlimit:4;stroke-opacity:1;stroke-dasharray:none"
       d="m 514.293,289.281 70.6289,0 0,8.26484 -70.6289,0 0,-8.26484 z" /><path
       inkscape:connector-curvature="0"
       id="path124"
       style="fill:none;stroke:#000000;stroke-width:0.31752998;stroke-linecap:square;stroke-linejoin:miter;stroke-miterlimit:4;stroke-opacity:1;stroke-dasharray:none"
       d="m 528.516,289.32 13.852,0 0,8.17578 -13.852,0 0,-8.17578 z" /><path
       inkscape:connector-curvature="0"
       id="path126"
       style="fill:none;stroke:#000000;stroke-width:0.31752998;stroke-linecap:square;stroke-linejoin:miter;stroke-miterlimit:4;stroke-opacity:1;stroke-dasharray:none"
       d="m 556.859,289.331 13.848,0 0,8.17617 -13.848,0 0,-8.17617 z" /><path
       inkscape:connector-curvature="0"
       id="path128"
       style="fill:none;stroke:#ff0000;stroke-width:0.23793299;stroke-linecap:square;stroke-linejoin:miter;stroke-miterlimit:4;stroke-opacity:1;stroke-dasharray:none"
       d="m 542.98,288.941 -7.984,-2.141 18.281,-68.222 7.985,2.14 -18.282,68.223 z" /><path
       inkscape:connector-curvature="0"
       id="path130"
       style="fill:none;stroke:#000000;stroke-width:0.31752998;stroke-linecap:square;stroke-linejoin:miter;stroke-miterlimit:4;stroke-opacity:1;stroke-dasharray:none"
       d="m 546.614,275.187 3.586,-13.379 -7.895,-2.113 -3.586,13.375 7.895,2.117 z" /><path
       inkscape:connector-curvature="0"
       id="path132"
       style="fill:none;stroke:#000000;stroke-width:0.31752998;stroke-linecap:square;stroke-linejoin:miter;stroke-miterlimit:4;stroke-opacity:1;stroke-dasharray:none"
       d="m 553.957,247.815 3.586,-13.378 -7.895,-2.117 -3.585,13.379 7.894,2.116 z" /><path
       inkscape:connector-curvature="0"
       id="path134"
       style="fill:none;stroke:#ff0000;stroke-width:0.23793299;stroke-linecap:square;stroke-linejoin:miter;stroke-miterlimit:4;stroke-opacity:1;stroke-dasharray:none"
       d="m 532.234,246.195 -7.984,-2.141 18.281,-68.222 7.985,2.14 -18.282,68.223 z" /><path
       inkscape:connector-curvature="0"
       id="path136"
       style="fill:none;stroke:#000000;stroke-width:0.31752998;stroke-linecap:square;stroke-linejoin:miter;stroke-miterlimit:4;stroke-opacity:1;stroke-dasharray:none"
       d="m 535.867,232.441 3.586,-13.379 -7.899,-2.113 -3.581,13.374 7.894,2.118 z" /><path
       inkscape:connector-curvature="0"
       id="path138"
       style="fill:none;stroke:#000000;stroke-width:0.31752998;stroke-linecap:square;stroke-linejoin:miter;stroke-miterlimit:4;stroke-opacity:1;stroke-dasharray:none"
       d="m 543.211,205.069 3.586,-13.378 -7.895,-2.118 -3.586,13.38 7.895,2.116 z" /><path
       inkscape:connector-curvature="0"
       id="path140"
       style="fill:none;stroke:#ff0000;stroke-width:0.23793299;stroke-linecap:square;stroke-linejoin:miter;stroke-miterlimit:4;stroke-opacity:1;stroke-dasharray:none"
       d="m 467.688,102.179 70.6281,0 0,8.26602 -70.6281,0 0,-8.26602 z" /><path
       inkscape:connector-curvature="0"
       id="path142"
       style="fill:none;stroke:#000000;stroke-width:0.31752998;stroke-linecap:square;stroke-linejoin:miter;stroke-miterlimit:4;stroke-opacity:1;stroke-dasharray:none"
       d="m 481.91,102.222 13.852,0 0,8.17578 -13.852,0 0,-8.17578 z" /><path
       inkscape:connector-curvature="0"
       id="path144"
       style="fill:none;stroke:#000000;stroke-width:0.31752998;stroke-linecap:square;stroke-linejoin:miter;stroke-miterlimit:4;stroke-opacity:1;stroke-dasharray:none"
       d="m 510.25,102.23 13.852,0 0,8.17617 -13.852,0 0,-8.17617 z" /><path
       inkscape:connector-curvature="0"
       id="path146"
       style="fill:none;stroke:#ff0000;stroke-width:0.23793299;stroke-linecap:square;stroke-linejoin:miter;stroke-miterlimit:4;stroke-opacity:1;stroke-dasharray:none"
       d="m 184.223,102.179 70.6289,0 0,8.26602 -70.6289,0 0,-8.26602 z" /><path
       inkscape:connector-curvature="0"
       id="path148"
       style="fill:none;stroke:#000000;stroke-width:0.31752998;stroke-linecap:square;stroke-linejoin:miter;stroke-miterlimit:4;stroke-opacity:1;stroke-dasharray:none"
       d="m 198.445,102.222 13.852,0 0,8.17578 -13.852,0 0,-8.17578 z" /><path
       inkscape:connector-curvature="0"
       id="path150"
       style="fill:none;stroke:#000000;stroke-width:0.31752998;stroke-linecap:square;stroke-linejoin:miter;stroke-miterlimit:4;stroke-opacity:1;stroke-dasharray:none"
       d="m 226.789,102.23 13.848,0 0,8.17617 -13.848,0 0,-8.17617 z" /><path
       inkscape:connector-curvature="0"
       id="path152"
       style="fill:none;stroke:#ff0000;stroke-width:0.23793299;stroke-linecap:square;stroke-linejoin:miter;stroke-miterlimit:4;stroke-opacity:1;stroke-dasharray:none"
       d="m 325.953,102.179 70.6289,0 0,8.26602 -70.6289,0 0,-8.26602 z" /><path
       inkscape:connector-curvature="0"
       id="path154"
       style="fill:none;stroke:#000000;stroke-width:0.31752998;stroke-linecap:square;stroke-linejoin:miter;stroke-miterlimit:4;stroke-opacity:1;stroke-dasharray:none"
       d="m 340.18,102.222 13.848,0 0,8.17578 -13.848,0 0,-8.17578 z" /><path
       inkscape:connector-curvature="0"
       id="path156"
       style="fill:none;stroke:#000000;stroke-width:0.31752998;stroke-linecap:square;stroke-linejoin:miter;stroke-miterlimit:4;stroke-opacity:1;stroke-dasharray:none"
       d="m 368.52,102.23 13.852,0 0,8.17617 -13.852,0 0,-8.17617 z" /><path
       inkscape:connector-curvature="0"
       id="path158"
       style="fill:none;stroke:#ff0000;stroke-width:0.54893696;stroke-linecap:square;stroke-linejoin:miter;stroke-miterlimit:4;stroke-opacity:1;stroke-dasharray:none"
       d="m 164.438,157.031 2.058,-7.684 377.324,101.106 -2.059,7.683 -377.323,-101.105 z" /><path
       inkscape:connector-curvature="0"
       id="path160"
       style="fill:none;stroke:#000000;stroke-width:0.31752998;stroke-linecap:square;stroke-linejoin:miter;stroke-miterlimit:4;stroke-opacity:1;stroke-dasharray:none"
       d="m 191.684,164.453 13.379,3.582 2.113,-7.895 -13.379,-3.586 -2.113,7.899 z" /><path
       inkscape:connector-curvature="0"
       id="path162"
       style="fill:none;stroke:#000000;stroke-width:0.31752998;stroke-linecap:square;stroke-linejoin:miter;stroke-miterlimit:4;stroke-opacity:1;stroke-dasharray:none"
       d="m 232.754,175.457 13.379,3.585 2.113,-7.898 -13.375,-3.582 -2.117,7.895 z" /><path
       inkscape:connector-curvature="0"
       id="path164"
       style="fill:none;stroke:#000000;stroke-width:0.31752998;stroke-linecap:square;stroke-linejoin:miter;stroke-miterlimit:4;stroke-opacity:1;stroke-dasharray:none"
       d="m 273.824,186.46 c 4.848,0.891 8.668,2.325 13.379,3.586 l 2.117,-7.898 c -4.847,-0.887 -8.668,-2.32 -13.379,-3.582 l -2.117,7.894 z" /><path
       inkscape:connector-curvature="0"
       id="path166"
       style="fill:none;stroke:#ff0000;stroke-width:0.523265;stroke-linecap:square;stroke-linejoin:miter;stroke-miterlimit:4;stroke-opacity:1;stroke-dasharray:none"
       d="m 186.516,130.195 2.066,-7.708 341.75,91.571 -2.066,7.708 -341.75,-91.571 z" /><path
       inkscape:connector-curvature="0"
       id="path168"
       style="fill:none;stroke:#000000;stroke-width:0.31752998;stroke-linecap:square;stroke-linejoin:miter;stroke-miterlimit:4;stroke-opacity:1;stroke-dasharray:none"
       d="m 213.777,137.605 13.375,3.586 2.117,-7.898 -13.378,-3.583 -2.114,7.895 z" /><path
       inkscape:connector-curvature="0"
       id="path170"
       style="fill:none;stroke:#000000;stroke-width:0.31752998;stroke-linecap:square;stroke-linejoin:miter;stroke-miterlimit:4;stroke-opacity:1;stroke-dasharray:none"
       d="m 254.848,148.608 13.375,3.587 2.116,-7.895 -13.378,-3.586 -2.113,7.894 z" /><path
       inkscape:connector-curvature="0"
       id="path172"
       style="fill:none;stroke:#000000;stroke-width:0.31752998;stroke-linecap:square;stroke-linejoin:miter;stroke-miterlimit:4;stroke-opacity:1;stroke-dasharray:none"
       d="m 295.918,159.616 13.378,3.583 2.113,-7.895 -13.378,-3.586 -2.113,7.898 z" /><path
       inkscape:connector-curvature="0"
       id="path174"
       style="fill:none;stroke:#000000;stroke-width:0.31752998;stroke-linecap:square;stroke-linejoin:miter;stroke-miterlimit:4;stroke-opacity:1;stroke-dasharray:none"
       d="m 487.582,210.972 13.379,3.586 2.113,-7.899 -13.379,-3.585 -2.113,7.898 z" /><path
       inkscape:connector-curvature="0"
       id="path176"
       style="fill:none;stroke:#000000;stroke-width:0.31752998;stroke-linecap:square;stroke-linejoin:miter;stroke-miterlimit:4;stroke-opacity:1;stroke-dasharray:none"
       d="m 446.512,199.968 13.374,3.582 2.118,-7.894 -13.379,-3.586 -2.113,7.898 z" /><path
       inkscape:connector-curvature="0"
       id="path178"
       style="fill:none;stroke:#000000;stroke-width:0.31752998;stroke-linecap:square;stroke-linejoin:miter;stroke-miterlimit:4;stroke-opacity:1;stroke-dasharray:none"
       d="m 405.441,188.96 13.375,3.586 2.118,-7.895 -13.379,-3.586 -2.114,7.895 z" /><path
       inkscape:connector-curvature="0"
       id="path180"
       style="fill:none;stroke:#000000;stroke-width:0.00498417;stroke-linecap:butt;stroke-linejoin:miter;stroke-miterlimit:4;stroke-opacity:1;stroke-dasharray:none"
       d="m 375.438,325.675 28.348,0 0,28.348 -28.348,0 0,-28.348 z" /><path
       style="fill:none;stroke:#ff0000;stroke-width:0.75;stroke-linecap:butt;stroke-linejoin:miter;stroke-opacity:1;stroke-miterlimit:4;stroke-dasharray:none"
       d="M 170.4189,708.37126 421.29567,708.37"
       id="path3307"
       inkscape:connector-curvature="0"
       transform="matrix(0.8,0,0,-0.8,0,823)"
       sodipodi:nodetypes="cc" /><path
       style="fill:none;stroke:#ff0000;stroke-width:0.6;stroke-linecap:butt;stroke-linejoin:miter;stroke-opacity:1;stroke-miterlimit:4;stroke-dasharray:none"
       d="m 136.33512,247.79906 200.70142,0"
       id="path3307-1"
       inkscape:connector-curvature="0"
       sodipodi:nodetypes="cc" /><path
       style="fill:none;stroke:#ff0000;stroke-width:0.75;stroke-linecap:butt;stroke-linejoin:miter;stroke-opacity:1;stroke-miterlimit:4;stroke-dasharray:none"
       d="m 268.52244,719.00118 0,-10.62992"
       id="path3327"
       inkscape:connector-curvature="0"
       transform="matrix(0.8,0,0,-0.8,0,823)"
       sodipodi:nodetypes="cc" /><path
       style="fill:none;stroke:#ff0000;stroke-width:0.6;stroke-linecap:butt;stroke-linejoin:miter;stroke-opacity:1;stroke-miterlimit:4;stroke-dasharray:none"
       d="m 258.52535,247.79906 0,8.50393"
       id="path3327-7"
       inkscape:connector-curvature="0"
       sodipodi:nodetypes="cc" /><path
       style="fill:none;stroke:#000000;stroke-width:0.6;stroke-linecap:butt;stroke-linejoin:miter;stroke-opacity:1;stroke-miterlimit:4;stroke-dasharray:none"
       d="m 149.4463,247.79905 0,8.50394"
       id="path3327-4"
       inkscape:connector-curvature="0"
       sodipodi:nodetypes="cc" /><path
       style="fill:none;stroke:#000000;stroke-width:0.6;stroke-linecap:butt;stroke-linejoin:miter;stroke-opacity:1;stroke-miterlimit:4;stroke-dasharray:none"
       d="m 193.1537,247.79906 0,8.50393"
       id="path3327-7-0"
       inkscape:connector-curvature="0"
       sodipodi:nodetypes="cc" /><path
       style="fill:none;stroke:#000000;stroke-width:0.6;stroke-linecap:butt;stroke-linejoin:miter;stroke-opacity:1;stroke-miterlimit:4;stroke-dasharray:none"
       d="m 280.2189,247.79905 0,8.50394"
       id="path3327-4-9"
       inkscape:connector-curvature="0"
       sodipodi:nodetypes="cc" /><path
       style="fill:none;stroke:#000000;stroke-width:0.6;stroke-linecap:butt;stroke-linejoin:miter;stroke-opacity:1;stroke-miterlimit:4;stroke-dasharray:none"
       d="m 323.9263,247.79906 0,8.50393"
       id="path3327-7-0-4"
       inkscape:connector-curvature="0"
       sodipodi:nodetypes="cc" /><path
       style="fill:none;stroke:#000000;stroke-width:0.75;stroke-linecap:butt;stroke-linejoin:miter;stroke-opacity:1;stroke-miterlimit:4;stroke-dasharray:none"
       d="m 186.80669,708.37126 54.63425,0"
       id="path3389"
       inkscape:connector-curvature="0"
       transform="matrix(0.8,0,0,-0.8,0,823)"
       sodipodi:nodetypes="cc" /><path
       style="fill:none;stroke:#000000;stroke-width:0.75;stroke-linecap:butt;stroke-linejoin:miter;stroke-opacity:1;stroke-miterlimit:4;stroke-dasharray:none"
       d="m 186.80669,719.00118 54.63425,0"
       id="path3391"
       inkscape:connector-curvature="0"
       transform="matrix(0.8,0,0,-0.8,0,823)"
       sodipodi:nodetypes="cc" /><path
       style="fill:none;stroke:#000000;stroke-width:0.75;stroke-linecap:butt;stroke-linejoin:miter;stroke-opacity:1;stroke-miterlimit:4;stroke-dasharray:none"
       d="m 350.27362,708.37126 54.63425,0"
       id="path3393"
       inkscape:connector-curvature="0"
       transform="matrix(0.8,0,0,-0.8,0,823)"
       sodipodi:nodetypes="cc" /><path
       style="fill:none;stroke:#000000;stroke-width:0.75;stroke-linecap:butt;stroke-linejoin:miter;stroke-opacity:1;stroke-miterlimit:4;stroke-dasharray:none"
       d="m 350.27362,719.00118 54.63425,0"
       id="path3395"
       inkscape:connector-curvature="0"
       transform="matrix(0.8,0,0,-0.8,0,823)"
       sodipodi:nodetypes="cc" /><path
       style="fill:none;stroke:#000000;stroke-width:0.60000002;stroke-linecap:butt;stroke-linejoin:miter;stroke-miterlimit:4;stroke-opacity:1;stroke-dasharray:none"
       d="m 87.309921,448.03843 0,24.37795"
       id="path3327-2"
       inkscape:connector-curvature="0"
       sodipodi:nodetypes="cc" /><path
       style="fill:none;stroke:#000000;stroke-width:0.60000002;stroke-linecap:butt;stroke-linejoin:miter;stroke-miterlimit:4;stroke-opacity:1;stroke-dasharray:none"
       d="m 131.01732,448.03843 -5.5e-4,24.37795"
       id="path3327-7-4"
       inkscape:connector-curvature="0"
       sodipodi:nodetypes="cc" /><path
       style="fill:none;stroke:#000000;stroke-width:0.60000002;stroke-linecap:butt;stroke-linejoin:miter;stroke-miterlimit:4;stroke-opacity:1;stroke-dasharray:none"
       d="m 21.93776,439.58228 -4.37e-4,8.50433"
       id="path3327-4-5"
       inkscape:connector-curvature="0"
       sodipodi:nodetypes="cc" /><path
       style="fill:none;stroke:#000000;stroke-width:0.60000002;stroke-linecap:butt;stroke-linejoin:miter;stroke-miterlimit:4;stroke-opacity:1;stroke-dasharray:none"
       d="m 65.64516,439.58229 -4.36e-4,8.50432"
       id="path3327-7-0-5"
       inkscape:connector-curvature="0"
       sodipodi:nodetypes="cc" /><path
       style="fill:none;stroke:#000000;stroke-width:0.60000002;stroke-linecap:butt;stroke-linejoin:miter;stroke-miterlimit:4;stroke-opacity:1;stroke-dasharray:none"
       d="m 152.71032,439.58228 5.5e-4,8.50394"
       id="path3327-4-9-1"
       inkscape:connector-curvature="0"
       sodipodi:nodetypes="cc" /><path
       style="fill:none;stroke:#000000;stroke-width:0.60000002;stroke-linecap:butt;stroke-linejoin:miter;stroke-miterlimit:4;stroke-opacity:1;stroke-dasharray:none"
       d="m 196.41772,439.58229 5.5e-4,8.50432"
       id="path3327-7-0-4-7"
       inkscape:connector-curvature="0"
       sodipodi:nodetypes="cc" /><path
       style="fill:none;stroke:#000000;stroke-width:0.60000002;stroke-linecap:butt;stroke-linejoin:miter;stroke-miterlimit:4;stroke-opacity:1;stroke-dasharray:none"
       d="m 21.936812,439.58229 43.7074,0"
       id="path3391-1"
       inkscape:connector-curvature="0"
       sodipodi:nodetypes="cc" /><path
       style="fill:none;stroke:#000000;stroke-width:0.60000002;stroke-linecap:butt;stroke-linejoin:miter;stroke-miterlimit:4;stroke-opacity:1;stroke-dasharray:none"
       d="m 152.71032,439.58229 43.7074,0"
       id="path3395-2"
       inkscape:connector-curvature="0"
       sodipodi:nodetypes="cc" /><path
       style="fill:none;stroke:#000000;stroke-width:1px;stroke-linecap:butt;stroke-linejoin:miter;stroke-opacity:1"
       d="m 27.5625,468.64173 -16.595965,0 0,-329.47086 -10.62637752,0 0,-16.99725 10.62637752,0 0,-36.155903 -10.62637752,0 0,-16.968898 10.62637752,0 0,-36.187795 -10.62637752,0 0,-8.486221 0,-8.48622 5.31318872,0 5.3131888,0 0,-17.734252 0,-17.734252 250.880315,0 0,35.468504 10.62284,0 c 0,0 0.25,16.722441 0,16.972441 -0.25,0.25 -10.62284,0 -10.62284,0 l 0,36.187795 10.62284,0 0,16.968898 -10.62284,0 0,36.155903 10.62284,0 0,16.99725 -10.62284,0 0,329.47086 -16.32402,0"
       id="path4484"
       inkscape:connector-curvature="0"
       transform="matrix(0.8,0,0,-0.8,0,823)"
       sodipodi:nodetypes="cccccccccccccccccccccsccccccccccc" /><path
       style="fill:none;stroke:#000000;stroke-width:1px;stroke-linecap:butt;stroke-linejoin:miter;stroke-opacity:1"
       d="m 190.88858,468.70197 c -0.375,0.0625 -27.11693,0 -27.11693,0"
       id="path4486"
       inkscape:connector-curvature="0"
       transform="matrix(0.8,0,0,-0.8,0,823)"
       sodipodi:nodetypes="cc" /><path
       style="fill:none;stroke:#000000;stroke-width:1px;stroke-linecap:butt;stroke-linejoin:miter;stroke-opacity:1"
       d="m 82.055906,468.64173 27.081494,0"
       id="path4488"
       inkscape:connector-curvature="0"
       transform="matrix(0.8,0,0,-0.8,0,823)"
       sodipodi:nodetypes="cc" /></g></svg>